<?xml version="1.0" standalone="no"?>
<!DOCTYPE svg PUBLIC "-//W3C//DTD SVG 20010904//EN"
 "http://www.w3.org/TR/2001/REC-SVG-20010904/DTD/svg10.dtd">
<svg version="1.0" xmlns="http://www.w3.org/2000/svg"
 width="512.000000pt" height="512.000000pt" viewBox="0 0 512.000000 512.000000"
 preserveAspectRatio="xMidYMid meet">
<metadata>
Created by potrace 1.16, written by Peter Selinger 2001-2019
</metadata>
<g transform="translate(0.000000,512.000000) scale(0.100000,-0.100000)"
fill="#000000" stroke="none">
<path d="M1765 4975 c-204 -38 -413 -113 -517 -187 l-27 -19 -15 29 c-25 48
-112 119 -168 138 -69 23 -176 21 -226 -5 -36 -18 -128 -108 -149 -145 -9 -17
-12 -17 -41 -2 -17 9 -54 16 -82 16 -101 0 -170 -62 -212 -189 -16 -52 -21
-93 -22 -191 l-2 -125 -48 -65 c-62 -84 -131 -227 -152 -315 -16 -70 -16 -79
2 -308 7 -98 -5 -180 -39 -254 -16 -36 -21 -68 -21 -128 -1 -153 47 -219 210
-288 98 -41 100 -41 224 -42 113 0 129 2 170 24 71 37 181 116 225 161 21 22
42 40 46 40 11 0 47 -163 65 -300 23 -167 22 -537 -1 -750 -29 -268 -31 -383
-6 -481 41 -163 231 -490 373 -643 l65 -70 49 16 49 15 6 175 c11 296 45 532
104 715 26 81 33 163 14 163 -6 0 -19 -5 -31 -11 -32 -17 -70 5 -145 85 -103
108 -170 191 -240 298 -99 150 -110 181 -117 329 -3 70 -10 159 -17 199 -6 39
-9 73 -7 75 2 2 31 -37 65 -88 82 -125 195 -251 292 -329 109 -87 123 -94 169
-82 33 8 37 13 40 44 6 81 47 272 78 362 23 68 29 100 21 105 -6 3 -156 11
-333 18 -178 6 -326 14 -330 18 -4 4 -17 47 -30 97 -27 107 -70 207 -95 220
-34 19 -49 10 -102 -63 -55 -75 -146 -151 -242 -204 -43 -24 -61 -28 -130 -28
-116 0 -117 1 -93 71 17 49 18 64 8 103 -16 65 -41 93 -126 146 -67 42 -75 50
-69 72 16 66 23 174 15 238 -21 153 -22 182 -10 240 15 79 86 224 148 305 80
104 129 146 202 172 73 26 79 34 104 143 30 128 119 289 179 326 38 23 122 25
170 5 44 -18 96 -72 119 -123 11 -26 23 -88 29 -160 6 -65 17 -124 23 -131 14
-15 120 -34 142 -25 9 3 20 17 25 31 13 33 -11 70 -48 74 -27 3 -28 5 -36 82
-6 67 -5 82 9 97 45 50 290 150 450 183 l63 13 3 -41 c3 -45 -10 -34 173 -142
192 -113 418 -295 602 -488 55 -57 101 -96 112 -96 29 0 51 27 51 61 0 25 -21
52 -132 162 -202 201 -437 384 -629 491 l-66 36 5 50 c4 39 1 55 -13 70 -21
23 -33 23 -130 5z"/>
<path d="M3785 4963 c-16 -2 -64 -15 -105 -28 -116 -36 -119 -36 -228 -18
-171 29 -278 -2 -388 -112 -112 -110 -148 -215 -163 -463 -11 -191 -26 -225
-144 -350 -125 -133 -175 -231 -206 -409 l-16 -95 -58 -18 c-100 -31 -181 -98
-232 -193 -15 -27 -61 -81 -102 -120 -90 -86 -152 -177 -203 -299 -78 -188
-109 -365 -120 -683 l-7 -230 -42 -109 c-24 -60 -51 -143 -62 -185 -44 -173
-60 -411 -39 -607 7 -71 6 -108 -5 -167 -23 -120 -29 -297 -15 -457 23 -269
47 -289 335 -290 99 0 196 5 215 10 41 11 94 61 109 103 6 16 11 101 11 195 0
180 -5 199 -66 282 -23 31 -25 41 -20 95 3 33 8 112 12 175 6 111 8 117 46
182 76 128 139 322 154 475 6 58 10 65 64 121 l58 59 12 -41 c7 -23 39 -98 71
-167 57 -122 88 -227 89 -298 0 -26 -9 -42 -39 -71 -44 -43 -87 -128 -97 -191
-4 -24 -28 -98 -55 -164 -81 -204 -131 -419 -145 -621 l-7 -94 832 0 832 0 30
-22 c39 -29 113 -31 153 -5 37 25 54 68 72 190 29 184 7 420 -57 617 -48 148
-136 294 -188 311 -8 3 -8 34 -1 109 6 58 10 206 11 329 l0 223 49 59 c61 74
112 179 141 289 19 73 23 115 25 300 1 177 5 222 19 258 l18 43 23 -35 c37
-55 82 -176 105 -288 17 -81 23 -155 28 -344 l6 -240 36 -70 c19 -38 57 -110
83 -161 61 -119 112 -269 137 -408 12 -60 32 -139 46 -175 14 -36 41 -105 60
-154 67 -174 127 -495 109 -588 -15 -80 -109 -118 -294 -118 -123 0 -151 11
-181 73 -27 57 -29 176 -3 227 35 70 132 104 232 80 63 -15 98 -7 106 24 15
61 -51 90 -194 85 l-84 -3 -24 69 c-38 110 -79 184 -159 285 -85 107 -113 172
-122 279 -7 87 -14 101 -55 101 -45 0 -62 -49 -49 -143 18 -126 50 -196 140
-307 70 -85 134 -204 151 -282 12 -52 11 -55 -19 -103 -41 -64 -51 -103 -51
-196 0 -108 21 -170 78 -229 58 -59 93 -70 229 -70 215 0 334 44 384 142 28
55 33 110 20 234 -23 208 -78 421 -153 584 -17 37 -42 125 -59 205 -43 210
-100 365 -196 531 -62 107 -66 127 -68 349 -2 225 -19 345 -66 490 -31 93 -81
193 -126 252 -23 30 -26 42 -24 103 3 103 -40 178 -138 236 l-29 17 5 116 c6
122 -12 253 -43 315 -11 23 -14 79 -14 257 l0 227 30 63 c40 84 53 156 48 259
-6 133 -69 249 -175 322 -80 55 -191 83 -278 71z m199 -517 c65 -49 66 -56 66
-341 l0 -255 -83 0 c-144 0 -237 -44 -304 -143 l-31 -47 -57 30 c-31 16 -82
50 -114 75 -54 42 -63 46 -126 49 -88 5 -116 30 -122 108 -4 44 -1 57 16 75
47 49 109 42 146 -17 29 -46 55 -51 113 -21 75 39 107 95 122 217 15 119 92
237 182 283 60 31 142 25 192 -13z m-701 -773 c-21 -102 5 -228 66 -317 25
-36 38 -46 59 -46 16 0 34 6 41 13 10 10 16 7 29 -13 39 -62 130 -136 223
-183 96 -48 219 -139 219 -161 0 -7 -18 -30 -40 -51 -58 -57 -53 -115 11 -115
21 0 43 17 96 74 76 81 134 181 168 289 l22 68 42 -38 c36 -32 44 -46 48 -84
11 -101 -72 -312 -175 -441 -51 -64 -68 -78 -138 -110 -121 -57 -218 -79 -354
-79 -346 0 -653 197 -799 513 -66 143 -88 270 -50 294 19 12 81 -96 125 -216
69 -193 205 -321 413 -389 88 -29 126 -28 147 4 28 44 8 69 -71 89 -192 48
-342 182 -395 351 -23 73 -93 196 -142 251 -28 30 -46 58 -43 65 15 23 91 49
145 48 69 0 107 -20 157 -84 102 -129 212 -229 307 -277 30 -15 44 -18 62 -10
51 24 38 79 -26 112 -57 29 -159 119 -223 198 -31 38 -57 72 -57 76 0 4 26 52
57 107 60 104 90 129 76 62z m-784 -558 c64 -32 92 -70 130 -173 91 -249 263
-447 488 -561 151 -75 383 -113 536 -86 194 34 360 123 486 261 l51 56 1 -49
c4 -154 -17 -273 -67 -382 -71 -153 -158 -217 -311 -228 -89 -6 -103 -14 -103
-54 0 -44 35 -62 107 -54 55 6 117 20 149 32 12 4 14 -14 14 -113 0 -121 -15
-387 -25 -459 -6 -37 -12 -44 -75 -83 -162 -101 -279 -135 -460 -135 -96 0
-146 5 -215 22 -97 25 -223 79 -302 131 l-50 33 -7 74 c-9 112 -31 184 -102
335 -59 124 -115 300 -101 314 3 3 27 -11 54 -32 98 -75 243 -126 401 -139 92
-8 112 0 112 45 0 41 -21 52 -123 62 -236 23 -410 137 -481 314 -25 63 -52
216 -41 235 4 5 -1 21 -10 35 -22 33 -64 29 -84 -8 -21 -37 0 -209 36 -293 36
-83 40 -155 13 -227 -48 -129 -128 -203 -235 -217 -58 -8 -75 -20 -75 -56 0
-33 20 -45 78 -45 l54 0 -7 -42 c-23 -148 -85 -319 -157 -431 -30 -47 -31 -52
-44 -244 -6 -108 -11 -201 -9 -207 2 -6 6 -23 9 -37 3 -15 22 -46 41 -69 l35
-42 0 -159 c0 -213 15 -199 -218 -199 -227 0 -215 -9 -233 180 -14 154 -7 340
16 450 14 64 14 92 4 190 -14 136 -7 347 16 475 14 82 45 181 105 340 21 54
24 85 31 305 10 346 39 489 136 689 47 98 66 125 132 192 52 51 88 79 107 82
57 10 144 -3 193 -28z m374 -1980 c149 -96 309 -144 507 -152 211 -9 376 34
535 138 108 70 115 68 169 -37 50 -99 80 -183 107 -299 39 -174 26 -524 -21
-533 -26 -4 -124 167 -185 326 -45 117 -84 119 -148 11 -21 -35 -50 -79 -65
-97 l-28 -34 -49 40 c-68 53 -171 164 -225 241 -25 35 -52 69 -61 74 -24 15
-64 1 -77 -28 -7 -14 -33 -48 -58 -75 l-46 -49 -42 21 c-79 39 -164 108 -216
173 -57 71 -86 82 -118 43 -9 -12 -31 -37 -48 -56 l-31 -36 -27 40 c-44 68
-51 159 -16 248 15 40 49 86 63 86 7 0 43 -20 80 -45z"/>
<path d="M890 4708 c-52 -28 -91 -116 -94 -213 l-1 -50 135 0 135 0 -3 45 c-5
71 -32 156 -61 189 -30 36 -75 47 -111 29z"/>
<path d="M1532 4223 c-72 -3 -83 -6 -80 -21 2 -9 20 -26 41 -37 20 -11 37 -25
37 -31 0 -25 -83 -123 -139 -164 -34 -25 -60 -49 -58 -55 2 -5 35 -22 72 -37
38 -14 71 -31 73 -37 6 -19 -45 -96 -84 -126 -20 -15 -72 -43 -117 -61 -44
-19 -93 -46 -108 -60 -50 -48 -88 -169 -53 -169 6 0 31 25 55 55 51 62 70 73
172 101 128 35 213 84 304 175 78 78 102 117 90 148 -3 8 -39 27 -80 42 l-74
29 42 32 c46 35 108 113 125 158 9 22 7 31 -6 46 -18 20 -13 20 -212 12z"/>
</g>
</svg>
